<svg display="none" xmlns="http://www.w3.org/2000/svg">

	<symbol id="instagram" viewBox="0 0 50 50">
		<path d="M 12 3 C 7.04 3 3 7.04 3 12 L 3 38 C 3 42.96 7.04 47 12 47 L 38 47 C 42.96 47 47 42.96 47 38 L 47 12 C 47 7.04 42.96 3 38 3 L 12 3 z M 38 8 L 41 8 C 41.55 8 42 8.45 42 9 L 42 12 C 42 12.55 41.55 13 41 13 L 38 13 C 37.45 13 37 12.55 37 12 L 37 9 C 37 8.45 37.45 8 38 8 z M 25 10 C 30.33 10 35.019688 12.8 37.679688 17 L 42 17 L 42 37 C 42 39.76 39.76 42 37 42 L 13 42 C 10.24 42 8 39.76 8 37 L 8 17 L 12.320312 17 C 14.980313 12.8 19.67 10 25 10 z M 25 12 C 17.83 12 12 17.83 12 25 C 12 32.17 17.83 38 25 38 C 32.17 38 38 32.17 38 25 C 38 17.83 32.17 12 25 12 z M 25 16 C 29.96 16 34 20.04 34 25 C 34 29.96 29.96 34 25 34 C 20.04 34 16 29.96 16 25 C 16 20.04 20.04 16 25 16 z"/>
	</symbol>
	
	<symbol id="search" viewBox="0 0 32 32">
		<path d="M27.414,24.586l-5.077-5.077C23.386,17.928,24,16.035,24,14c0-5.514-4.486-10-10-10S4,8.486,4,14  s4.486,10,10,10c2.035,0,3.928-0.614,5.509-1.663l5.077,5.077c0.78,0.781,2.048,0.781,2.828,0  C28.195,26.633,28.195,25.367,27.414,24.586z M7,14c0-3.86,3.14-7,7-7s7,3.14,7,7s-3.14,7-7,7S7,17.86,7,14z" id="XMLID_223_"/>
	</symbol>

	<symbol id="pinterest" viewBox="0 0 384 512">
		<path d="M204 6.5C101.4 6.5 0 74.9 0 185.6 0 256 39.6 296 63.6 296c9.9 0 15.6-27.6 15.6-35.4 0-9.3-23.7-29.1-23.7-67.8 0-80.4 61.2-137.4 140.4-137.4 68.1 0 118.5 38.7 118.5 109.8 0 53.1-21.3 152.7-90.3 152.7-24.9 0-46.2-18-46.2-43.8 0-37.8 26.4-74.4 26.4-113.4 0-66.2-93.9-54.2-93.9 25.8 0 16.8 2.1 35.4 9.6 50.7-13.8 59.4-42 147.9-42 209.1 0 18.9 2.7 37.5 4.5 56.4 3.4 3.8 1.7 3.4 6.9 1.5 50.4-69 48.6-82.5 71.4-172.8 12.3 23.4 44.1 36 69.3 36 106.2 0 153.9-103.5 153.9-196.8C384 71.3 298.2 6.5 204 6.5z"/>
	</symbol>

	<symbol id="pinterest-rounded" viewBox="0 0 496 512">
		<path d="M496 256c0 137-111 248-248 248-25.6 0-50.2-3.9-73.4-11.1 10.1-16.5 25.2-43.5 30.8-65 3-11.6 15.4-59 15.4-59 8.1 15.4 31.7 28.5 56.8 28.5 74.8 0 128.7-68.8 128.7-154.3 0-81.9-66.9-143.2-152.9-143.2-107 0-163.9 71.8-163.9 150.1 0 36.4 19.4 81.7 50.3 96.1 4.7 2.2 7.2 1.2 8.3-3.3.8-3.4 5-20.3 6.9-28.1.6-2.5.3-4.7-1.7-7.1-10.1-12.5-18.3-35.3-18.3-56.6 0-54.7 41.4-107.6 112-107.6 60.9 0 103.6 41.5 103.6 100.9 0 67.1-33.9 113.6-78 113.6-24.3 0-42.6-20.1-36.7-44.8 7-29.5 20.5-61.3 20.5-82.6 0-19-10.2-34.9-31.4-34.9-24.9 0-44.9 25.7-44.9 60.2 0 22 7.4 36.8 7.4 36.8s-24.5 103.8-29 123.2c-5 21.4-3 51.6-.9 71.2C65.4 450.9 0 361.1 0 256 0 119 111 8 248 8s248 111 248 248z"/>
	</symbol>

	<symbol id="facebook" viewBox="0 0 320 512">
		<path d="M279.14 288l14.22-92.66h-88.91v-60.13c0-25.35 12.42-50.06 52.24-50.06h40.42V6.26S260.43 0 225.36 0c-73.22 0-121.08 44.38-121.08 124.72v70.62H22.89V288h81.39v224h100.17V288z"/>
	</symbol>

	<symbol id="youtube" viewBox="0 0 50 50">
		<path d="M33 11v5.375c-.455.539-.979 1.018-1.391 1.018-.273 0-.559-.126-.609-.393 0-1.625 0-6 0-6h-2v5.838c0 .66.099 1.109.239 1.397.23.473.689.714 1.35.735C31.5 19 32.185 18.41 33 17.625V19h2v-8H33zM23 8h-2.4L19 12l-1.6-4H15c.414 1.013 2.402 5.381 3 6.994V19h2v-4L23 8zM27.333 11.945C26.771 11.275 25.889 11 25 11c-1.006 0-1.772.275-2.333.945-.433.495-.665 1.29-.665 2.337L22 15.727c0 1.041.206 1.761.639 2.252C23.201 18.646 24.111 19 25 19s1.815-.354 2.378-1.023C27.804 17.487 28 16.768 28 15.727v-1.452C28 13.227 27.759 12.44 27.333 11.945zM26 16.448c0 .563-.448 1.021-1 1.021s-1-.457-1-1.021c0-.162 0-2.645 0-2.807 0-.563.448-1.021 1-1.021s1 .457 1 1.021C26 13.803 26 16.286 26 16.448zM28.22 30.75c-.31 0-.9.31-1.22.63v4.37c.32.32.91.53 1.22.53.54 0 .78-.36.78-1.41v-2.74C29 31.08 28.76 30.75 28.22 30.75zM28.22 30.75c-.31 0-.9.31-1.22.63v4.37c.32.32.91.53 1.22.53.54 0 .78-.36.78-1.41v-2.74C29 31.08 28.76 30.75 28.22 30.75zM40.68 26.75c0 0-.31-2.16-1.27-3.1-1.22-1.25-2.58-1.26-3.21-1.33C31.72 22 25.01 22 25.01 22h-.02c0 0-6.71 0-11.19.32-.63.07-1.99.08-3.21 1.33-.96.94-1.27 3.1-1.27 3.1S9 28.28 9 30.81v2.37c0 2.53.32 4.06.32 4.06s.31 2.16 1.27 3.11c1.22 1.24 2.82 1.2 3.53 1.33C16.68 41.92 25 42 25 42s6.72-.01 11.2-.33c.63-.07 1.99-.08 3.21-1.33.96-.94 1.27-3.1 1.27-3.1S41 35.71 41 33.18v-2.37C41 28.28 40.68 26.75 40.68 26.75zM16 38h-2V28h-2v-2h6v2h-2V38zM24 38h-2v-1.37C21.21 37.49 20.27 38 19.54 38c-.64 0-1.09-.28-1.31-.79C18.1 36.89 18 36.41 18 35.69V29h2v6.89c.05.29.26.4.52.4.4 0 1.04-.44 1.48-1.02V29h2V38zM31 35.13c-.01.88-.1 1.27-.22 1.69C30.53 37.6 29.88 38 29.12 38c-.67 0-1.49-.47-2.12-1.25V38h-2V26h2v4.38c.75-.88 1.15-1.39 2.12-1.38.76.01 1.37.44 1.62 1.22.13.42.26 1.17.26 2.16V35.13zM38 34h-4v1.8c0 .46.45.84 1 .84s1-.38 1-.84V35h2c0 .51-.06.94-.07 1.1-.07.35-.23.67-.47.95C36.92 37.69 36.11 38 35.08 38c-1.04 0-1.82-.3-2.39-.9C32.27 36.67 32 36.01 32 35.08v-3.06c0-.94.24-1.66.67-2.1.57-.6 1.35-.92 2.36-.92.99 0 1.78.32 2.33.92.41.44.64 1.12.64 2.06V34zM35 30.45c-.55 0-1 .37-1 .84v1.32h2v-1.32C36 30.82 35.55 30.45 35 30.45zM28.22 30.75c-.31 0-.9.31-1.22.63v4.37c.32.32.91.53 1.22.53.54 0 .78-.36.78-1.41v-2.74C29 31.08 28.76 30.75 28.22 30.75z"/>
	</symbol>

	<symbol id="google" viewBox="0 0 50 50">
		<path fill="none" stroke-linecap="round" stroke-linejoin="round" stroke-miterlimit="10" stroke-width="2" d="M28.552,23.913c0-3.626,5.89-3.944,5.89-11.022C34.443,7.763,31,6,30,6h4l3-3H26.106C14,3,13,11.281,13,14c0,4.048,2.633,9,9,9c0.579,0,1.345,0.075,2,0c0,0-0.667,1.204-0.667,2.137C23.333,27.081,24,28,25,29c-6.965-0.068-15.344,3.033-15.344,9.756c0,2.46,2.114,8.244,12.04,8.244c11.321,0,14.749-6.992,14.749-10.91C36.443,28.606,28.552,27.369,28.552,23.913z"/>
		<path d="M28.552,23.913c0-3.626,5.89-3.944,5.89-11.022C34.443,7.763,31,6,30,6h4l3-3H26.106C14,3,13,11.281,13,14c0,4.048,2.633,9,9,9c0.579,0,1.345,0.075,2,0c0,0-0.667,1.204-0.667,2.137C23.333,27.081,24,28,25,29c-6.965-0.068-15.344,3.033-15.344,9.756c0,2.46,2.114,8.244,12.04,8.244c11.321,0,14.749-6.992,14.749-10.91C36.443,28.606,28.552,27.369,28.552,23.913z M24.406,20c-3.364,0-6.204-4.228-6.204-8.75c0-1.343,0.647-5.25,4.365-5.25c4.79,0,5.958,7.105,5.958,9.038C28.525,15.484,28.842,20,24.406,20z M25.098,42.818C21.12,43.616,15,42,15.029,37.035c0.012-2.119,1.215-6.051,8.101-7.037c0,0,1.722-0.288,2.951,0C27.838,31.314,31,33.397,31,36.901C30.998,38.49,30.016,41.832,25.098,42.818z"/>
	</symbol>
	
	<symbol id="rss" viewBox="0 0 512 512">
		<g>
		<path d="M415.7,508.2c-2-110.5-39.2-206.7-116-285.9c-76.9-79.3-171.6-119-282.4-121.2c0-31.9,0-63.7,0-95.7   c8.4,0,16.8-0.4,25.2,0.1c26.3,1.4,52.4,5,78.1,10.6c46.8,10.3,91.1,27.2,132.9,50.6c30.2,16.9,58.2,36.7,84.2,59.4   c20.8,18.2,39.9,38.1,57.5,59.5c20.2,24.7,38,50.9,53.2,78.9c20.1,36.8,35.3,75.6,45.8,116.2c10.3,39.9,15.4,80.4,16.4,121.5   c0.1,4.7-0.8,6.4-5.8,6.3c-27.8-0.2-55.6-0.1-83.5-0.1C419.4,508.5,417.7,508.3,415.7,508.2z"/>
		<path d="M17.3,272.5c0-32.3,0-64.1,0-95.8c170.9-4,326.8,145.6,324.9,331.2c-31.4,0-62.7,0-94.5,0c-0.9-63.7-22.3-119.3-66.8-165.2   C136.3,296.7,81.6,273.6,17.3,272.5z"/>
		<path d="M82.5,374.5c36.5-0.1,65.8,29.5,65.8,66.7c0,36.8-29.2,66.7-65.3,66.8c-36.6,0.1-66-29.5-66-66.5   C16.9,404.1,45.7,374.6,82.5,374.5z"/>
		</g>
	</symbol>

	<symbol id="twitter" viewBox="0 0 512 512">
		<path d="M459.37 151.716c.325 4.548.325 9.097.325 13.645 0 138.72-105.583 298.558-298.558 298.558-59.452 0-114.68-17.219-161.137-47.106 8.447.974 16.568 1.299 25.34 1.299 49.055 0 94.213-16.568 130.274-44.832-46.132-.975-84.792-31.188-98.112-72.772 6.498.974 12.995 1.624 19.818 1.624 9.421 0 18.843-1.3 27.614-3.573-48.081-9.747-84.143-51.98-84.143-102.985v-1.299c13.969 7.797 30.214 12.67 47.431 13.319-28.264-18.843-46.781-51.005-46.781-87.391 0-19.492 5.197-37.36 14.294-52.954 51.655 63.675 129.3 105.258 216.365 109.807-1.624-7.797-2.599-15.918-2.599-24.04 0-57.828 46.782-104.934 104.934-104.934 30.213 0 57.502 12.67 76.67 33.137 23.715-4.548 46.456-13.32 66.599-25.34-7.798 24.366-24.366 44.833-46.132 57.827 21.117-2.273 41.584-8.122 60.426-16.243-14.292 20.791-32.161 39.308-52.628 54.253z"/>
	</symbol>

	<symbol id="tumblr" viewBox="0 0 320 512">
		<path d="M309.8 480.3c-13.6 14.5-50 31.7-97.4 31.7-120.8 0-147-88.8-147-140.6v-144H17.9c-5.5 0-10-4.5-10-10v-68c0-7.2 4.5-13.6 11.3-16 62-21.8 81.5-76 84.3-117.1.8-11 6.5-16.3 16.1-16.3h70.9c5.5 0 10 4.5 10 10v115.2h83c5.5 0 10 4.4 10 9.9v81.7c0 5.5-4.5 10-10 10h-83.4V360c0 34.2 23.7 53.6 68 35.8 4.8-1.9 9-3.2 12.7-2.2 3.5.9 5.8 3.4 7.4 7.9l22 64.3c1.8 5 3.3 10.6-.4 14.5z"/>
	</symbol>

	<symbol id="star" viewBox="0 0 576 512">
		<path d="M381.2 150.3L524.9 171.5C536.8 173.2 546.8 181.6 550.6 193.1C554.4 204.7 551.3 217.3 542.7 225.9L438.5 328.1L463.1 474.7C465.1 486.7 460.2 498.9 450.2 506C440.3 513.1 427.2 514 416.5 508.3L288.1 439.8L159.8 508.3C149 514 135.9 513.1 126 506C116.1 498.9 111.1 486.7 113.2 474.7L137.8 328.1L33.58 225.9C24.97 217.3 21.91 204.7 25.69 193.1C29.46 181.6 39.43 173.2 51.42 171.5L195 150.3L259.4 17.97C264.7 6.954 275.9-.0391 288.1-.0391C300.4-.0391 311.6 6.954 316.9 17.97L381.2 150.3z"/>
	</symbol>

</svg>