<svg xmlns="http://www.w3.org/2000/svg"  viewBox="0 0 50 50" width="50px" height="50px">
<path d="M33 11v5.375c-.455.539-.979 1.018-1.391 1.018-.273 0-.559-.126-.609-.393 0-1.625 0-6 0-6h-2v5.838c0 .66.099 1.109.239 1.397.23.473.689.714 1.35.735C31.5 19 32.185 18.41 33 17.625V19h2v-8H33zM23 8h-2.4L19 12l-1.6-4H15c.414 1.013 2.402 5.381 3 6.994V19h2v-4L23 8zM27.333 11.945C26.771 11.275 25.889 11 25 11c-1.006 0-1.772.275-2.333.945-.433.495-.665 1.29-.665 2.337L22 15.727c0 1.041.206 1.761.639 2.252C23.201 18.646 24.111 19 25 19s1.815-.354 2.378-1.023C27.804 17.487 28 16.768 28 15.727v-1.452C28 13.227 27.759 12.44 27.333 11.945zM26 16.448c0 .563-.448 1.021-1 1.021s-1-.457-1-1.021c0-.162 0-2.645 0-2.807 0-.563.448-1.021 1-1.021s1 .457 1 1.021C26 13.803 26 16.286 26 16.448zM28.22 30.75c-.31 0-.9.31-1.22.63v4.37c.32.32.91.53 1.22.53.54 0 .78-.36.78-1.41v-2.74C29 31.08 28.76 30.75 28.22 30.75zM28.22 30.75c-.31 0-.9.31-1.22.63v4.37c.32.32.91.53 1.22.53.54 0 .78-.36.78-1.41v-2.74C29 31.08 28.76 30.75 28.22 30.75zM40.68 26.75c0 0-.31-2.16-1.27-3.1-1.22-1.25-2.58-1.26-3.21-1.33C31.72 22 25.01 22 25.01 22h-.02c0 0-6.71 0-11.19.32-.63.07-1.99.08-3.21 1.33-.96.94-1.27 3.1-1.27 3.1S9 28.28 9 30.81v2.37c0 2.53.32 4.06.32 4.06s.31 2.16 1.27 3.11c1.22 1.24 2.82 1.2 3.53 1.33C16.68 41.92 25 42 25 42s6.72-.01 11.2-.33c.63-.07 1.99-.08 3.21-1.33.96-.94 1.27-3.1 1.27-3.1S41 35.71 41 33.18v-2.37C41 28.28 40.68 26.75 40.68 26.75zM16 38h-2V28h-2v-2h6v2h-2V38zM24 38h-2v-1.37C21.21 37.49 20.27 38 19.54 38c-.64 0-1.09-.28-1.31-.79C18.1 36.89 18 36.41 18 35.69V29h2v6.89c.05.29.26.4.52.4.4 0 1.04-.44 1.48-1.02V29h2V38zM31 35.13c-.01.88-.1 1.27-.22 1.69C30.53 37.6 29.88 38 29.12 38c-.67 0-1.49-.47-2.12-1.25V38h-2V26h2v4.38c.75-.88 1.15-1.39 2.12-1.38.76.01 1.37.44 1.62 1.22.13.42.26 1.17.26 2.16V35.13zM38 34h-4v1.8c0 .46.45.84 1 .84s1-.38 1-.84V35h2c0 .51-.06.94-.07 1.1-.07.35-.23.67-.47.95C36.92 37.69 36.11 38 35.08 38c-1.04 0-1.82-.3-2.39-.9C32.27 36.67 32 36.01 32 35.08v-3.06c0-.94.24-1.66.67-2.1.57-.6 1.35-.92 2.36-.92.99 0 1.78.32 2.33.92.41.44.64 1.12.64 2.06V34zM35 30.45c-.55 0-1 .37-1 .84v1.32h2v-1.32C36 30.82 35.55 30.45 35 30.45zM28.22 30.75c-.31 0-.9.31-1.22.63v4.37c.32.32.91.53 1.22.53.54 0 .78-.36.78-1.41v-2.74C29 31.08 28.76 30.75 28.22 30.75z"/>
</svg>